<?xml version="1.0" standalone="no"?>
<!DOCTYPE svg PUBLIC "-//W3C//DTD SVG 20010904//EN"
 "http://www.w3.org/TR/2001/REC-SVG-20010904/DTD/svg10.dtd">
<svg version="1.0" xmlns="http://www.w3.org/2000/svg"
 width="53.000000pt" height="53.000000pt" viewBox="0 0 53.000000 53.000000"
 preserveAspectRatio="xMidYMid meet">

<g transform="translate(0.000000,53.000000) scale(0.100000,-0.100000)"
fill="#666666" stroke="none">
<path d="M40 275 l0 -95 65 0 c63 0 65 1 65 25 0 23 -4 25 -40 25 l-40 0 0 70
c0 68 -1 70 -25 70 -25 0 -25 0 -25 -95z"/>
<path d="M190 351 c0 -16 8 -20 41 -23 l40 -3 -46 -54 c-63 -73 -58 -85 33
-89 71 -3 72 -3 72 23 0 23 -4 25 -40 25 l-40 0 40 51 c22 28 40 59 40 70 0
17 -8 19 -70 19 -63 0 -70 -2 -70 -19z"/>
<path d="M360 275 c0 -95 0 -95 25 -95 21 0 25 5 25 30 0 25 4 30 25 30 55 0
87 77 47 113 -12 11 -36 17 -70 17 l-52 0 0 -95z m88 32 c2 -12 -3 -17 -17
-17 -15 0 -21 6 -21 21 0 25 33 22 38 -4z"/>
</g>
</svg>
